<svg aria-hidden="true" style="position: absolute; width: 0; height: 0; overflow: hidden;" version="1.1" xmlns="http://www.w3.org/2000/svg" xmlns:xlink="http://www.w3.org/1999/xlink">
<defs>
<symbol id="user" viewBox="0 0 28 32">
<path fill="#cc8e1e" style="fill: var(--color1, #cc8e1e)" d="M14.222 15.388c2.063 0 4.041-0.796 5.5-2.213s2.278-3.339 2.278-5.343c0-2.004-0.819-3.926-2.278-5.343s-3.437-2.213-5.5-2.213c-2.063 0-4.041 0.796-5.5 2.213s-2.278 3.339-2.278 5.343c0 2.004 0.819 3.926 2.278 5.343s3.437 2.213 5.5 2.213zM4.778 17.547c-1.031 0-2.021 0.398-2.75 1.107s-1.139 1.669-1.139 2.671v0.54c0 2.583 1.692 4.767 4.094 6.253 2.416 1.494 5.686 2.382 9.239 2.382s6.822-0.888 9.239-2.382c2.402-1.485 4.094-3.67 4.094-6.253v-0.54c0-1.002-0.41-1.963-1.139-2.671s-1.718-1.107-2.75-1.107h-18.889z"></path>
</symbol>
<symbol id="light" viewBox="0 0 30 32">
<path fill="#fff" style="fill: var(--color2, #fff)" d="M13.488 4.772v-1.927c0-0.383 0.152-0.751 0.423-1.022s0.639-0.423 1.022-0.423c0.383 0 0.751 0.152 1.022 0.423s0.423 0.639 0.423 1.022v1.927c0 0.383-0.152 0.751-0.423 1.022s-0.639 0.423-1.022 0.423c-0.383 0-0.751-0.152-1.022-0.423s-0.423-0.639-0.423-1.022zM23.123 16.333c0 1.62-0.48 3.203-1.38 4.55s-2.179 2.396-3.675 3.016c-1.496 0.62-3.143 0.782-4.732 0.466s-3.048-1.096-4.193-2.241c-1.145-1.145-1.925-2.604-2.241-4.193s-0.154-3.235 0.466-4.732c0.62-1.496 1.669-2.775 3.016-3.675s2.93-1.38 4.55-1.38c2.171 0.002 4.253 0.866 5.788 2.401s2.399 3.617 2.401 5.788zM20.232 16.333c0-1.048-0.311-2.073-0.893-2.944s-1.41-1.551-2.378-1.952c-0.968-0.401-2.034-0.506-3.062-0.302s-1.972 0.709-2.713 1.45c-0.741 0.741-1.246 1.685-1.45 2.713s-0.1 2.093 0.302 3.062c0.401 0.968 1.080 1.796 1.952 2.378s1.896 0.893 2.944 0.893c1.405-0.002 2.752-0.56 3.745-1.554s1.552-2.34 1.554-3.745zM5.722 9.166c0.134 0.134 0.294 0.241 0.47 0.314s0.364 0.11 0.554 0.11c0.19 0 0.378-0.037 0.554-0.11s0.335-0.179 0.47-0.314c0.134-0.134 0.241-0.294 0.314-0.47s0.11-0.364 0.11-0.554c0-0.19-0.037-0.378-0.11-0.554s-0.179-0.335-0.314-0.47l-1.445-1.445c-0.271-0.271-0.64-0.424-1.024-0.424s-0.752 0.152-1.024 0.424c-0.271 0.271-0.424 0.64-0.424 1.024s0.153 0.752 0.424 1.024l1.445 1.445zM5.722 23.497l-1.445 1.445c-0.134 0.134-0.241 0.294-0.314 0.47s-0.11 0.364-0.11 0.554c0 0.19 0.037 0.378 0.11 0.554s0.179 0.335 0.314 0.47c0.271 0.272 0.64 0.424 1.024 0.424 0.19 0 0.378-0.038 0.554-0.11s0.335-0.179 0.47-0.314l1.445-1.445c0.271-0.272 0.424-0.64 0.424-1.024s-0.153-0.752-0.424-1.024c-0.271-0.271-0.64-0.424-1.024-0.424s-0.752 0.153-1.024 0.424zM23.123 9.589c0.19 0 0.378-0.037 0.553-0.11s0.335-0.179 0.469-0.313l1.445-1.445c0.134-0.134 0.241-0.294 0.314-0.47s0.11-0.364 0.11-0.554c0-0.19-0.038-0.378-0.11-0.554s-0.179-0.335-0.314-0.47c-0.134-0.134-0.294-0.241-0.47-0.314s-0.364-0.11-0.554-0.11c-0.19 0-0.378 0.037-0.554 0.11s-0.335 0.179-0.47 0.314l-1.445 1.445c-0.203 0.202-0.342 0.46-0.398 0.741s-0.028 0.573 0.082 0.837 0.296 0.491 0.535 0.65c0.239 0.159 0.519 0.243 0.806 0.242zM24.145 23.5c-0.272-0.271-0.64-0.424-1.024-0.424s-0.752 0.153-1.024 0.424c-0.272 0.272-0.424 0.64-0.424 1.024s0.153 0.752 0.424 1.024l1.445 1.445c0.272 0.272 0.64 0.424 1.024 0.424s0.752-0.153 1.024-0.424c0.272-0.271 0.424-0.64 0.424-1.024s-0.153-0.752-0.424-1.024l-1.445-1.445zM4.817 16.333c0-0.383-0.152-0.751-0.423-1.022s-0.639-0.423-1.022-0.423h-1.927c-0.383 0-0.751 0.152-1.022 0.423s-0.423 0.639-0.423 1.022c0 0.383 0.152 0.751 0.423 1.022s0.639 0.423 1.022 0.423h1.927c0.383 0 0.751-0.152 1.022-0.423s0.423-0.639 0.423-1.022zM14.933 26.449c-0.383 0-0.751 0.152-1.022 0.423s-0.423 0.639-0.423 1.022v1.927c0 0.383 0.152 0.751 0.423 1.022s0.639 0.423 1.022 0.423c0.383 0 0.751-0.152 1.022-0.423s0.423-0.639 0.423-1.022v-1.927c0-0.383-0.152-0.751-0.423-1.022s-0.639-0.423-1.022-0.423zM28.422 14.888h-1.927c-0.383 0-0.751 0.152-1.022 0.423s-0.423 0.639-0.423 1.022 0.152 0.751 0.423 1.022c0.271 0.271 0.639 0.423 1.022 0.423h1.927c0.383 0 0.751-0.152 1.022-0.423s0.423-0.639 0.423-1.022-0.152-0.751-0.423-1.022c-0.271-0.271-0.639-0.423-1.022-0.423z"></path>
</symbol>
<symbol id="dark" viewBox="0 0 29 32">
<path fill="#d3cfc3" style="fill: var(--color3, #d3cfc3)" d="M29.275 20.463c-0.929 3.034-2.791 5.698-5.322 7.612-2.221 1.672-4.865 2.692-7.634 2.945s-5.553-0.271-8.041-1.513c-2.488-1.242-4.58-3.153-6.043-5.518s-2.237-5.091-2.236-7.872c-0.010-3.246 1.045-6.406 3.003-8.994 1.914-2.531 4.577-4.393 7.61-5.323 0.2-0.062 0.413-0.067 0.616-0.017s0.388 0.155 0.536 0.303c0.148 0.148 0.253 0.333 0.303 0.537s0.044 0.416-0.017 0.616c-0.663 2.195-0.719 4.528-0.161 6.752s1.709 4.254 3.329 5.875c1.621 1.621 3.651 2.772 5.874 3.33s4.556 0.502 6.75-0.161c0.2-0.062 0.413-0.067 0.616-0.017s0.389 0.155 0.536 0.303c0.148 0.148 0.253 0.333 0.303 0.537s0.045 0.416-0.017 0.616l-0.007-0.010z"></path>
</symbol>
<symbol id="logo" viewBox="0 0 34 32">
<path fill="#ffb13b" style="fill: var(--color4, #ffb13b)" d="M32.519 13.778c-1.195-1.132-3.132-1.132-4.327 0h-6.262l4.428-4.195c1.69 0 3.059-1.298 3.059-2.898s-1.37-2.899-3.059-2.899c-1.69 0-3.059 1.298-3.059 2.899l-4.428 4.195v-5.932c1.195-1.132 1.195-2.967 0-4.099s-3.132-1.132-4.327 0c-1.195 1.132-1.195 2.967 0 4.099v5.932l-4.428-4.195c0-1.601-1.37-2.898-3.059-2.898s-3.059 1.298-3.059 2.898c0 1.601 1.37 2.899 3.059 2.899l4.428 4.195h-6.262c-1.195-1.132-3.132-1.132-4.327 0s-1.195 2.967 0 4.099c1.195 1.132 3.132 1.132 4.327 0h6.262l-4.427 4.194c-1.69 0-3.059 1.298-3.059 2.898s1.37 2.899 3.059 2.899c1.69 0 3.060-1.298 3.060-2.898l4.428-4.195v5.932c-1.195 1.132-1.195 2.967 0 4.099s3.132 1.132 4.327 0c1.195-1.132 1.195-2.967 0-4.099v-5.932l4.428 4.195c0 1.601 1.37 2.898 3.059 2.898s3.060-1.298 3.060-2.898c0-1.601-1.37-2.898-3.059-2.898l-4.428-4.195h6.262c1.195 1.132 3.132 1.132 4.327 0s1.195-2.967 0-4.099z"></path>
</symbol>


  <symbol id="arrow" viewBox="0 0 43 32">
    <path fill="none" stroke="#2b3f5b" style="stroke: var(--color5, #2b3f5b)" stroke-linejoin="miter" stroke-linecap="butt" stroke-miterlimit="4" stroke-width="8" d="M7.546 6.165l16 16 16-16"></path>
  </symbol>
  
<symbol id="checkbox" viewBox="0 0 47 32">
<path fill="none" stroke="#cc8e1e" style="stroke: var(--color1, #cc8e1e)" stroke-linejoin="miter" stroke-linecap="butt" stroke-miterlimit="4" stroke-width="8.7273" d="M5.818 12.085l13.623 13.033 21.286-20.364"></path>
</symbol>
<symbol id="arrow-right" viewBox="0 0 28 32">
<path fill="#cc8e1e" style="fill: var(--color1, #cc8e1e)" d="M24.772 12.992c2.51 1.449 2.51 5.072 0 6.521l-18.522 10.694c-2.51 1.449-5.647-0.362-5.647-3.26v-21.388c0-2.898 3.137-4.709 5.647-3.26l18.522 10.694z"></path>
</symbol>
<symbol id="arrow-left" viewBox="0 0 28 32">
<path fill="#cc8e1e" style="fill: var(--color1, #cc8e1e)" d="M3.384 19.504c-2.489-1.453-2.489-5.049 0-6.502l18.586-10.852c2.51-1.465 5.663 0.345 5.663 3.251v21.705c0 2.906-3.153 4.717-5.663 3.251l-18.586-10.853z"></path>
</symbol>


<symbol id="linkedin" viewBox="0 0 32 32">
<path  d="M24.594 4.652c0.679 0 1.33 0.27 1.81 0.75s0.75 1.131 0.75 1.81v17.92c0 0.679-0.27 1.33-0.75 1.81s-1.131 0.75-1.81 0.75h-17.92c-0.679 0-1.33-0.27-1.81-0.75s-0.75-1.131-0.75-1.81v-17.92c0-0.679 0.27-1.33 0.75-1.81s1.131-0.75 1.81-0.75h17.92zM23.954 24.492v-6.784c0-1.107-0.44-2.168-1.222-2.951s-1.844-1.222-2.951-1.222c-1.088 0-2.355 0.666-2.97 1.664v-1.421h-3.571v10.714h3.571v-6.31c0-0.986 0.794-1.792 1.779-1.792 0.475 0 0.931 0.189 1.267 0.525s0.525 0.792 0.525 1.267v6.31h3.571zM9.080 11.769c0.57 0 1.117-0.227 1.521-0.63s0.63-0.95 0.63-1.521c0-1.19-0.96-2.163-2.15-2.163-0.574 0-1.124 0.228-1.53 0.634s-0.634 0.956-0.634 1.53c0 1.19 0.973 2.15 2.163 2.15zM10.859 24.492v-10.714h-3.546v10.714h3.546z"></path>
</symbol>
<symbol id="youtube" viewBox="0 0 32 32">
<path  d="M13.074 20.012l6.643-3.84-6.643-3.84v7.68zM27.87 9.989c0.166 0.602 0.282 1.408 0.358 2.432 0.090 1.024 0.128 1.907 0.128 2.675l0.077 1.075c0 2.803-0.205 4.864-0.563 6.182-0.32 1.152-1.062 1.894-2.214 2.214-0.602 0.166-1.702 0.282-3.392 0.358-1.664 0.090-3.187 0.128-4.595 0.128l-2.035 0.077c-5.363 0-8.704-0.205-10.022-0.563-1.152-0.32-1.894-1.062-2.214-2.214-0.166-0.602-0.282-1.408-0.358-2.432-0.090-1.024-0.128-1.907-0.128-2.675l-0.077-1.075c0-2.803 0.205-4.864 0.563-6.182 0.32-1.152 1.062-1.894 2.214-2.214 0.602-0.166 1.702-0.282 3.392-0.358 1.664-0.090 3.187-0.128 4.595-0.128l2.035-0.077c5.363 0 8.704 0.205 10.022 0.563 1.152 0.32 1.894 1.062 2.214 2.214z"></path>
</symbol>
<symbol id="facebook" viewBox="0 0 32 32">
<path  d="M28.434 16.172c0-7.066-5.734-12.8-12.8-12.8s-12.8 5.734-12.8 12.8c0 6.195 4.403 11.354 10.24 12.544v-8.704h-2.56v-3.84h2.56v-3.2c0-2.47 2.010-4.48 4.48-4.48h3.2v3.84h-2.56c-0.704 0-1.28 0.576-1.28 1.28v2.56h3.84v3.84h-3.84v8.896c6.464-0.64 11.52-6.093 11.52-12.736z"></path>
</symbol>

<symbol id="ins" viewBox="0 0 32 32">
<path  d="M17.13 0.967c1.714 0.005 2.584 0.014 3.336 0.035l0.296 0.011c0.341 0.012 0.678 0.027 1.085 0.046 1.621 0.076 2.728 0.332 3.698 0.709 1.006 0.387 1.853 0.911 2.7 1.757 0.775 0.762 1.374 1.683 1.757 2.7 0.376 0.971 0.632 2.077 0.709 3.7 0.018 0.405 0.034 0.742 0.046 1.085l0.009 0.296c0.023 0.75 0.032 1.62 0.035 3.334l0.002 1.137v1.996c0.004 1.111-0.008 2.223-0.035 3.334l-0.009 0.296c-0.012 0.343-0.027 0.68-0.046 1.085-0.076 1.623-0.335 2.728-0.71 3.7-0.381 1.018-0.981 1.939-1.757 2.7-0.762 0.775-1.683 1.374-2.7 1.757-0.971 0.376-2.077 0.632-3.698 0.709-0.362 0.017-0.723 0.032-1.085 0.046l-0.296 0.009c-0.751 0.021-1.621 0.032-3.336 0.035l-3.131 0.002c-1.112 0.004-2.224-0.008-3.336-0.035l-0.296-0.009c-0.362-0.014-0.723-0.029-1.085-0.047-1.621-0.076-2.728-0.332-3.7-0.709-1.017-0.382-1.938-0.982-2.699-1.757-0.776-0.761-1.376-1.683-1.758-2.7-0.376-0.971-0.632-2.077-0.709-3.7-0.017-0.362-0.032-0.723-0.046-1.085l-0.008-0.296c-0.028-1.111-0.041-2.223-0.038-3.334v-3.133c-0.004-1.111 0.007-2.223 0.034-3.334l0.011-0.296c0.012-0.343 0.027-0.68 0.046-1.085 0.076-1.623 0.332-2.728 0.709-3.7 0.383-1.018 0.984-1.94 1.762-2.7 0.761-0.775 1.681-1.375 2.697-1.757 0.972-0.376 2.077-0.632 3.7-0.709 0.405-0.018 0.744-0.034 1.085-0.046l0.296-0.009c1.111-0.027 2.223-0.039 3.334-0.035l3.133-0.002zM15.563 8.586c-2.021 0-3.959 0.803-5.387 2.232s-2.232 3.367-2.232 5.388c0 2.021 0.803 3.959 2.232 5.387s3.367 2.232 5.387 2.232c2.021 0 3.959-0.803 5.387-2.232s2.232-3.367 2.232-5.387c0-2.021-0.803-3.959-2.232-5.388s-3.367-2.232-5.387-2.232zM15.563 11.633c0.6-0 1.195 0.118 1.75 0.348s1.059 0.566 1.483 0.991c0.425 0.424 0.761 0.928 0.991 1.483s0.348 1.149 0.348 1.749c0 0.6-0.118 1.195-0.348 1.75s-0.566 1.059-0.991 1.483c-0.425 0.425-0.928 0.761-1.483 0.991s-1.149 0.348-1.749 0.348c-1.212 0-2.375-0.482-3.233-1.339s-1.339-2.020-1.339-3.232c0-1.212 0.482-2.375 1.339-3.233s2.020-1.339 3.233-1.339zM23.565 6.3c-0.505 0-0.99 0.201-1.347 0.558s-0.558 0.842-0.558 1.347c0 0.505 0.201 0.99 0.558 1.347s0.842 0.558 1.347 0.558c0.505 0 0.99-0.201 1.347-0.558s0.558-0.842 0.558-1.347-0.201-0.99-0.558-1.347c-0.357-0.357-0.842-0.558-1.347-0.558z"></path>
</symbol>

<symbol id="visa" viewBox="0 0 116 32">
<path fill="#ffba46" style="fill: var(--color1, #ffba46)" d="M29.808 31.285c-2.988 0-5.909-0.885-8.394-2.545s-4.422-4.019-5.566-6.78c-1.144-2.76-1.444-5.798-0.861-8.729s2.021-5.623 4.134-7.736c2.113-2.113 4.805-3.553 7.735-4.136s5.969-0.285 8.729 0.858c2.761 1.143 5.121 3.079 6.781 5.564s2.547 5.405 2.548 8.393v0.002c-0.004 4.005-1.597 7.845-4.429 10.678s-6.672 4.426-10.677 4.43z"></path>
<path fill="#e50b18" style="fill: var(--color2, #e50b18)" d="M15.108 31.285c-2.988 0-5.909-0.886-8.394-2.546s-4.421-4.020-5.565-6.78c-1.144-2.761-1.443-5.799-0.86-8.729s2.022-5.623 4.135-7.736c2.113-2.113 4.805-3.552 7.736-4.135s5.969-0.284 8.729 0.86c2.761 1.144 5.12 3.080 6.781 5.565s2.546 5.406 2.546 8.394c-0.004 4.006-1.597 7.846-4.43 10.679s-6.673 4.426-10.679 4.43z"></path>
<path fill="#8099f7" style="fill: var(--color3, #8099f7)" d="M102.831 9.858c-1.044-0.38-2.147-0.571-3.258-0.564-3.593 0-6.131 1.81-6.148 4.408-0.023 1.909 1.803 2.984 3.184 3.622 1.417 0.656 1.891 1.069 1.886 1.655-0.009 0.891-1.132 1.296-2.176 1.296-1.435 0-2.219-0.2-3.424-0.701l-0.447-0.209-0.51 2.991c0.874 0.364 2.448 0.676 4.074 0.703 3.82 0 6.317-1.799 6.346-4.563 0.031-1.525-0.957-2.677-3.036-3.629-1.264-0.617-2.048-1.031-2.048-1.657 0-0.555 0.671-1.147 2.075-1.147 0.934-0.023 1.862 0.153 2.724 0.514l0.337 0.151 0.51-2.89-0.088 0.020zM112.155 9.537h-2.807c-0.873 0-1.531 0.24-1.913 1.107l-5.398 12.23h3.82l0.763-2.005 4.662 0.005c0.11 0.469 0.447 2.001 0.447 2.001h3.368l-2.942-13.337zM88.257 9.424h3.64l-2.277 13.343h-3.636l2.273-13.348v0.004zM79.016 16.779l0.377 1.853 3.557-9.095h3.856l-5.728 13.319h-3.847l-3.144-11.277c-0.051-0.186-0.171-0.346-0.335-0.447-1.133-0.585-2.334-1.030-3.575-1.323l0.050-0.281h5.859c0.795 0.031 1.435 0.281 1.648 1.129l1.28 6.128v-0.007h0.002zM107.663 18.139l1.451-3.732c-0.018 0.040 0.299-0.77 0.483-1.271l0.249 1.152 0.842 3.849-3.025 0.002z"></path>
</symbol>


<symbol id="map" viewBox="0 0 34 32">
<path fill="#cc8e1e" style="fill: var(--color1, #cc8e1e)" d="M16.459 30.832l1.607 1.075c0 0 0.262 0.185 0.464-0.087s0.202-0.619 0.869-0.619l0.309-0.022c0 0 0.226-0.141 0.452-0.141l-0.238-0.304 0.738-0.565-0.071-0.152 0.56-0.489c0 0 0.5 0.13 0.774-0.597 0 0 0.059-0.337 0.309-0.358 0 0 0.143 0.098 0.202 0.348 0 0 0.226 0.326 0.25-0.261l0.071-0.271 0.167-0.196 0.179-0.185v-0.163l0.464-0.304v-0.206l0.286-0.304c0 0 0.381 0.109 0.309-0.228s0.009-0.174 0.009-0.174l0.134-0.039 0.381 0.409 0.25-0.011 0.869-0.141-0.191-0.174-0.048-0.261 0.333-0.195v-0.195l1.012-0.282 0.071 0.109 2.059-0.239 0.774-0.456 0.786-0.391 1.107 0.684-0.059 0.195 0.631 0.478 0.595-0.652-0.69-0.521 0.214-0.424h0.202l0.167-0.673 0.179-0.119h0.238v-0.087h0.298v-0.076c0 0 0.107-0.065 0-0.076s-0.214-0.054-0.214-0.054c0 0-0.048-0.011-0.048-0.076s-0.071-0.185-0.071-0.185l0.048-0.119h0.143l0.095 0.185 0.095-0.022-0.048-0.163-0.012-0.109-0.155-0.065-0.643-0.869 0.381-0.434-1.976-1.195v-0.076l0.155-0.152v-0.141l0.262-0.206 0.369-0.206-0.167-0.152-0.024-0.304 0.262-0.261 0.357-0.141h0.417v-0.076l-0.94-1.499 0.048-1.021 0.333-0.489-0.012-0.304h-0.131l-0.298 0.217-0.417 0.054-0.286-0.033-0.048-0.119-0.095-0.934 1.19-0.076 0.048-0.076 0.048-0.793h-0.167l-0.167-1.108-4.678 0.793-0.917-0.109 0.167-0.098 0.179-0.228v-0.825l-0.238-0.315-0.143-0.076-0.75-0.814 0.060-0.12 0.119-1.303-0.238-0.261h-0.179l-0.464 0.641-0.119 0.065-0.155 0.054-0.155 0.109c0 0-0.119 0.043-0.131 0.098s-0.238 0.174-0.238 0.174l-0.107 0.174-0.083 0.087-3.178 0.608-0.274 0.011-0.512-1.455-0.298 0.022-0.059-0.348-0.631-0.869-0.262-0.728 0.131-0.109-0.583-2.15 0.881-0.25-0.226-0.891 0.071-0.141-0.131-0.195-0.059-0.358h-0.191l-0.107-0.728 0.393-0.054-0.309-1.151-0.262-0.076-0.214-0.532 0.012-0.337-0.226-0.684-0.583 0.174-0.386 0.022v0.304l-0.602 0.022-0.321 0.13-0.095-0.152-0.083-0.087h-0.262c0 0-0.179 0.163-0.25 0.174s-0.274 0.033-0.274 0.033l-0.464 0.043-0.202-0.13v-0.13l-0.119-0.109-0.226 0.239-0.107 0.576-0.19 0.185h-0.25l-0.56-0.011-0.19-0.119v-0.413l-0.238-0.326-0.488 0.054-0.155 0.195h-0.202l-0.19-0.13-1.083 0.424-0.595 0.022-0.393-1.053h-0.929l-0.167 0.152-0.69 0.022-0.309 0.576-0.286-0.206-0.071 0.065 0.262 0.478-0.095 0.054-0.286-0.163-0.214 0.185-0.262-0.195-0.286 0.054-0.071 0.228-0.405 0.293-0.179 0.054 0.381 0.814c0 0 0.583 0.717 0.429 1.629s-0.226 0.749-0.226 0.749c0 0-0.131 0.087-0.095 0.391l-0.643 0.293-0.309-0.25-0.071 0.119-0.143 0.076-0.095-0.119-0.833 0.195c0 0-0.357 0.228-0.488 0.901l-0.060 0.054-0.667-0.054-0.321-0.13v0.087c0 0 0.417 0.478 0.25 0.738l-0.25 0.901c0 0-0.107 0.163 0 0.315l-0.048 2.042 0.393 0.065-0.202 1.803-1.155 1.694 2.262 0.424c0 0 0.19 1.032-0.238 1.738l-0.714-0.011c0 0-0.512 0.326-0.631 0.369s0.012 0.402 0.012 0.402l0.167 0.141-0.036 0.88-0.167 0.076-0.179 0.836c0 0-1.287 0.076-1.488 0.923 0 0-0.071 0.326 0.393 1.151l0.012 0.434 0.071-0.011 0.738-0.293 0.012 0.945 2.428 0.043 0.119-0.185 0.738-0.043 0.155-0.206 0.274 0.022 0.071 0.076-0.226 0.63 0.345 0.109 0.274 0.228-0.036 0.706h0.179l0.214 0.282 0.071 0.119-0.012 0.239 0.464 0.174 0.024 0.141 0.476 0.304 0.488 0.217 0.583 0.25 0.309 0.033 0.024 0.391 0.631 0.543 0.678 0.358 0.393 0.119 0.56 0.38 0.214 0.239-0.44 0.793v0.532l0.25 0.456 0.464 0.065-0.214 0.304-0.083 0.206 0.167 0.391-0.238 0.489 0.202 0.152-0.179 0.554 0.238 0.076-0.036 0.195 0.405 0.043 2.095-0.054 0.048-0.282 1.357-0.022v-0.141l0.476-0.5 0.036-0.109 0.143-0.065 0.607 0.51 0.452 0.098z"></path>
<path fill="#fff" style="fill: var(--color2, #fff)" d="M5.927 12.803v-1.009h0.14l0.416 0.657c0.012 0.019 0.028 0.046 0.049 0.081s0.041 0.070 0.062 0.106c-0.001-0.035-0.002-0.072-0.003-0.11s-0.001-0.065-0.001-0.082v-0.652h0.122v1.009h-0.142l-0.37-0.584c-0.014-0.022-0.035-0.055-0.062-0.1s-0.059-0.098-0.095-0.159c0.002 0.063 0.004 0.116 0.005 0.159s0.001 0.075 0.001 0.098v0.585h-0.122zM7.115 12.814c-0.071 0-0.13-0.018-0.178-0.055s-0.071-0.091-0.071-0.162c0-0.041 0.008-0.075 0.024-0.1s0.038-0.046 0.064-0.060c0.027-0.015 0.058-0.026 0.091-0.034s0.069-0.014 0.105-0.018c0.046-0.006 0.082-0.011 0.108-0.014s0.045-0.008 0.056-0.016c0.011-0.007 0.017-0.020 0.017-0.038v-0.007c0-0.039-0.014-0.071-0.042-0.096s-0.066-0.038-0.117-0.038c-0.050 0-0.091 0.012-0.123 0.037s-0.049 0.054-0.051 0.089h-0.117c0.002-0.044 0.016-0.083 0.041-0.117s0.059-0.061 0.102-0.081 0.093-0.030 0.149-0.030c0.084 0 0.15 0.022 0.199 0.065s0.074 0.1 0.074 0.171v0.493h-0.114v-0.102h-0.003c-0.009 0.017-0.021 0.035-0.038 0.052s-0.039 0.032-0.068 0.043c-0.028 0.011-0.064 0.017-0.107 0.017zM7.131 12.711c0.047 0 0.085-0.008 0.114-0.025s0.051-0.039 0.064-0.066c0.014-0.027 0.020-0.056 0.020-0.087v-0.089c-0.009 0.008-0.031 0.016-0.068 0.022s-0.076 0.012-0.117 0.018c-0.028 0.004-0.054 0.010-0.079 0.019s-0.044 0.021-0.060 0.037c-0.015 0.016-0.023 0.037-0.023 0.064 0 0.033 0.013 0.060 0.039 0.079s0.063 0.028 0.108 0.028zM7.865 12.819c-0.051 0-0.097-0.008-0.139-0.025s-0.075-0.042-0.101-0.076c-0.026-0.034-0.040-0.078-0.043-0.129h0.114c0.008 0.088 0.064 0.131 0.167 0.131 0.050 0 0.089-0.010 0.117-0.031s0.043-0.047 0.043-0.079c0-0.027-0.010-0.049-0.030-0.065s-0.046-0.028-0.078-0.035l-0.115-0.027c-0.135-0.032-0.202-0.099-0.202-0.203 0-0.041 0.011-0.077 0.033-0.108s0.053-0.056 0.091-0.074c0.039-0.018 0.084-0.027 0.136-0.027 0.050 0 0.094 0.009 0.133 0.028s0.071 0.045 0.094 0.079c0.023 0.034 0.036 0.075 0.037 0.123h-0.112c-0-0.038-0.014-0.069-0.042-0.094s-0.064-0.037-0.11-0.037c-0.044 0-0.079 0.011-0.105 0.032s-0.039 0.047-0.039 0.078c0 0.027 0.010 0.049 0.030 0.066s0.047 0.028 0.081 0.037l0.115 0.027c0.069 0.016 0.119 0.041 0.151 0.073s0.048 0.074 0.048 0.125c0 0.044-0.012 0.082-0.036 0.114s-0.057 0.056-0.098 0.072c-0.041 0.017-0.088 0.025-0.14 0.025zM8.252 12.803v-0.088l0.392-0.522v-0.003h-0.392v-0.103h0.534v0.092l-0.388 0.518v0.003h0.39v0.103h-0.537zM9.503 12.814c-0.071 0-0.13-0.018-0.178-0.055s-0.071-0.091-0.071-0.162c0-0.041 0.008-0.075 0.024-0.1s0.038-0.046 0.064-0.060c0.027-0.015 0.058-0.026 0.091-0.034s0.069-0.014 0.105-0.018c0.046-0.006 0.082-0.011 0.108-0.014s0.045-0.008 0.056-0.016c0.011-0.007 0.017-0.020 0.017-0.038v-0.007c0-0.039-0.014-0.071-0.042-0.096s-0.066-0.038-0.117-0.038c-0.050 0-0.091 0.012-0.123 0.037s-0.049 0.054-0.052 0.089h-0.117c0.002-0.044 0.016-0.083 0.041-0.117s0.059-0.061 0.102-0.081 0.093-0.030 0.149-0.030c0.084 0 0.15 0.022 0.198 0.065s0.074 0.1 0.074 0.171v0.493h-0.114v-0.102h-0.003c-0.009 0.017-0.021 0.035-0.038 0.052s-0.039 0.032-0.068 0.043c-0.028 0.011-0.064 0.017-0.107 0.017zM9.519 12.711c0.047 0 0.085-0.008 0.114-0.025s0.051-0.039 0.064-0.066c0.014-0.027 0.020-0.056 0.020-0.087v-0.089c-0.009 0.008-0.031 0.016-0.068 0.022s-0.076 0.012-0.117 0.018c-0.027 0.004-0.054 0.010-0.079 0.019s-0.044 0.021-0.060 0.037c-0.015 0.016-0.023 0.037-0.023 0.064 0 0.033 0.013 0.060 0.039 0.079s0.063 0.028 0.108 0.028zM10.277 12.817c-0.062 0-0.116-0.016-0.163-0.047s-0.083-0.075-0.108-0.131c-0.026-0.056-0.039-0.121-0.039-0.194s0.013-0.138 0.039-0.194c0.026-0.056 0.062-0.1 0.108-0.131s0.101-0.047 0.163-0.047c0.046 0 0.090 0.010 0.129 0.030s0.071 0.049 0.094 0.089h0.001v-0.4h0.115v1.009h-0.112v-0.108h-0.001c-0.026 0.041-0.058 0.072-0.098 0.092s-0.082 0.030-0.129 0.030zM10.294 12.713c0.066 0 0.119-0.024 0.158-0.073s0.059-0.114 0.059-0.194c0-0.081-0.020-0.146-0.059-0.194s-0.091-0.074-0.158-0.074c-0.062 0-0.113 0.023-0.152 0.068s-0.059 0.112-0.059 0.2c0 0.088 0.020 0.154 0.059 0.2s0.091 0.068 0.152 0.068zM10.787 12.803v-0.715h0.11v0.112h0.003c0.013-0.037 0.034-0.067 0.062-0.089s0.065-0.034 0.11-0.034c0.010 0 0.020 0 0.029 0.001s0.016 0.002 0.020 0.003v0.115c-0.005-0.001-0.013-0.003-0.026-0.005s-0.027-0.003-0.044-0.003c-0.040 0-0.074 0.014-0.104 0.042s-0.044 0.072-0.044 0.133v0.44h-0.115zM11.516 12.819c-0.070 0-0.13-0.016-0.179-0.048s-0.087-0.076-0.113-0.132c-0.026-0.056-0.039-0.121-0.039-0.192s0.014-0.137 0.041-0.194c0.028-0.057 0.066-0.101 0.114-0.133s0.105-0.049 0.168-0.049c0.066 0 0.124 0.016 0.173 0.047s0.086 0.076 0.112 0.132c0.027 0.056 0.040 0.122 0.040 0.196v0.032h-0.535c0.003 0.070 0.023 0.127 0.060 0.171s0.090 0.066 0.158 0.066c0.051 0 0.093-0.012 0.125-0.035s0.054-0.054 0.065-0.091h0.115c-0.009 0.046-0.028 0.086-0.056 0.121s-0.064 0.061-0.107 0.081c-0.042 0.019-0.090 0.029-0.142 0.029zM11.299 12.38h0.419c-0.006-0.063-0.028-0.113-0.066-0.15s-0.086-0.056-0.144-0.056-0.107 0.019-0.144 0.056c-0.037 0.037-0.059 0.087-0.065 0.15zM12.214 12.819c-0.051 0-0.097-0.008-0.139-0.025s-0.075-0.042-0.101-0.076c-0.026-0.034-0.040-0.078-0.043-0.129h0.114c0.008 0.088 0.064 0.131 0.167 0.131 0.050 0 0.089-0.010 0.117-0.031s0.043-0.047 0.043-0.079c0-0.027-0.010-0.049-0.030-0.065s-0.046-0.028-0.078-0.035l-0.115-0.027c-0.135-0.032-0.202-0.099-0.202-0.203 0-0.041 0.011-0.077 0.033-0.108s0.053-0.056 0.091-0.074c0.039-0.018 0.084-0.027 0.135-0.027 0.050 0 0.094 0.009 0.133 0.028s0.071 0.045 0.094 0.079c0.024 0.034 0.036 0.075 0.037 0.123h-0.112c-0-0.038-0.014-0.069-0.042-0.094s-0.064-0.037-0.11-0.037c-0.044 0-0.079 0.011-0.105 0.032s-0.039 0.047-0.039 0.078c0 0.027 0.010 0.049 0.030 0.066s0.047 0.028 0.081 0.037l0.115 0.027c0.069 0.016 0.119 0.041 0.151 0.073s0.048 0.074 0.048 0.125c0 0.044-0.012 0.082-0.036 0.114s-0.057 0.056-0.098 0.072c-0.041 0.017-0.088 0.025-0.14 0.025z"></path>
<path fill="#fff" style="fill: var(--color2, #fff)" d="M6.354 16.303h0.5c0-0.078 0.016-0.15 0.047-0.216s0.071-0.124 0.119-0.172h0.028c-0.004 0.024-0.006 0.049-0.008 0.075-0.002 0.022-0.004 0.046-0.006 0.072 0 0.026 0 0.051 0 0.075 0 0.035 0 0.067 0 0.094 0.002 0.026 0.004 0.049 0.006 0.069 0.002 0.022 0.005 0.042 0.008 0.058h-1.096v-0.028l0.167-0.042v-1.804l-0.167-0.042v-0.028h0.569v0.028l-0.167 0.042v1.818zM7.782 15.082c-0.031 0-0.064 0.011-0.097 0.033-0.031 0.020-0.061 0.056-0.089 0.105-0.026 0.048-0.048 0.113-0.067 0.194-0.017 0.081-0.025 0.183-0.025 0.305s0.008 0.224 0.025 0.305c0.019 0.081 0.041 0.147 0.067 0.197 0.028 0.048 0.057 0.083 0.089 0.105 0.033 0.020 0.066 0.031 0.097 0.031s0.063-0.010 0.094-0.031c0.033-0.022 0.063-0.057 0.089-0.105 0.028-0.050 0.050-0.116 0.067-0.197 0.018-0.081 0.028-0.183 0.028-0.305s-0.009-0.224-0.028-0.305c-0.017-0.081-0.039-0.146-0.067-0.194-0.026-0.050-0.056-0.085-0.089-0.105-0.031-0.022-0.063-0.033-0.094-0.033zM7.782 15.040c0.068 0 0.134 0.016 0.197 0.047 0.065 0.030 0.121 0.074 0.169 0.133 0.050 0.057 0.089 0.129 0.117 0.214 0.030 0.083 0.044 0.179 0.044 0.286s-0.015 0.204-0.044 0.289c-0.028 0.083-0.067 0.155-0.117 0.214-0.048 0.057-0.105 0.102-0.169 0.133-0.063 0.030-0.129 0.044-0.197 0.044-0.070 0-0.137-0.015-0.2-0.044-0.063-0.031-0.119-0.076-0.169-0.133-0.048-0.059-0.087-0.13-0.117-0.214-0.028-0.085-0.042-0.181-0.042-0.289s0.014-0.203 0.042-0.286c0.030-0.085 0.068-0.156 0.117-0.214 0.050-0.059 0.106-0.104 0.169-0.133 0.063-0.031 0.13-0.047 0.2-0.047zM8.919 16.289l0.166 0.042v0.028h-0.555v-0.028l0.167-0.042v-1.138l-0.167-0.042v-0.028h0.389v0.333c0.024-0.068 0.053-0.13 0.086-0.186 0.030-0.048 0.066-0.092 0.108-0.13s0.093-0.058 0.153-0.058c0.020 0 0.040 0.002 0.058 0.006 0.018 0.002 0.035 0.005 0.050 0.008 0.017 0.006 0.031 0.010 0.044 0.014l-0.083 0.208c-0.011-0.006-0.023-0.012-0.036-0.019-0.011-0.006-0.025-0.010-0.042-0.014-0.015-0.006-0.031-0.008-0.047-0.008-0.048 0-0.091 0.013-0.128 0.039s-0.068 0.055-0.092 0.086c-0.030 0.037-0.054 0.079-0.072 0.125v0.805zM9.781 15.72c0 0.118 0.008 0.217 0.025 0.297 0.019 0.080 0.042 0.144 0.069 0.194 0.030 0.048 0.062 0.082 0.097 0.103 0.037 0.020 0.075 0.031 0.114 0.031 0.048 0 0.094-0.009 0.136-0.028s0.080-0.043 0.114-0.075c0.033-0.031 0.060-0.069 0.080-0.114 0.022-0.044 0.037-0.092 0.044-0.144h0.042c-0.007 0.059-0.024 0.115-0.050 0.167-0.024 0.050-0.056 0.093-0.094 0.13s-0.084 0.066-0.136 0.086c-0.050 0.022-0.104 0.033-0.164 0.033-0.070 0-0.137-0.015-0.2-0.044-0.063-0.031-0.119-0.076-0.169-0.133-0.048-0.059-0.087-0.13-0.117-0.214-0.028-0.085-0.042-0.181-0.042-0.289 0-0.111 0.014-0.209 0.042-0.294s0.064-0.155 0.108-0.211c0.046-0.057 0.099-0.101 0.158-0.13 0.061-0.030 0.125-0.044 0.191-0.044s0.13 0.015 0.189 0.044c0.061 0.030 0.114 0.073 0.158 0.13 0.046 0.056 0.083 0.126 0.111 0.211s0.042 0.183 0.042 0.294h-0.749zM10.031 15.082c-0.028 0-0.056 0.009-0.083 0.028-0.028 0.017-0.054 0.047-0.078 0.092s-0.044 0.105-0.061 0.18c-0.015 0.074-0.024 0.168-0.028 0.283h0.499c-0.004-0.115-0.014-0.209-0.031-0.283-0.015-0.076-0.034-0.136-0.058-0.18s-0.050-0.075-0.078-0.092c-0.028-0.018-0.056-0.028-0.083-0.028zM10.906 16.289v-1.138l-0.166-0.042v-0.028h0.389v0.166c0.019-0.037 0.044-0.071 0.075-0.103 0.026-0.026 0.059-0.050 0.1-0.072s0.089-0.033 0.144-0.033c0.070 0 0.128 0.013 0.172 0.039 0.046 0.026 0.083 0.055 0.111 0.086 0.033 0.037 0.059 0.079 0.078 0.125 0.024-0.046 0.053-0.088 0.086-0.125 0.030-0.031 0.066-0.060 0.108-0.086s0.094-0.039 0.153-0.039c0.056 0 0.106 0.010 0.153 0.031 0.048 0.020 0.090 0.049 0.125 0.086 0.035 0.035 0.062 0.079 0.080 0.13 0.020 0.050 0.031 0.106 0.031 0.169v0.833l0.166 0.042v0.028h-0.541v-0.028l0.153-0.042v-0.833c0-0.131-0.021-0.224-0.064-0.277-0.041-0.056-0.089-0.083-0.144-0.083-0.046 0-0.086 0.013-0.119 0.039s-0.062 0.055-0.086 0.086c-0.028 0.037-0.052 0.079-0.072 0.125v0.944l0.153 0.042v0.028h-0.527v-0.028l0.153-0.042v-0.833c0-0.131-0.021-0.224-0.064-0.277-0.041-0.056-0.089-0.083-0.144-0.083-0.046 0-0.086 0.013-0.119 0.039s-0.062 0.055-0.086 0.086c-0.028 0.037-0.052 0.079-0.072 0.125v0.944l0.153 0.042v0.028h-0.541v-0.028l0.166-0.042zM13.041 16.081c0.043 0 0.079 0.017 0.108 0.050 0.030 0.031 0.044 0.075 0.044 0.13 0 0.081-0.013 0.147-0.039 0.197-0.024 0.050-0.051 0.090-0.080 0.119-0.033 0.033-0.072 0.058-0.117 0.075l-0.028-0.044c0.031-0.015 0.059-0.032 0.083-0.053 0.020-0.017 0.039-0.038 0.056-0.064 0.019-0.026 0.028-0.056 0.028-0.092 0-0.007-0.001-0.014-0.003-0.019-0.002-0.004-0.004-0.007-0.006-0.011l-0.006-0.011c-0.004 0.004-0.009 0.006-0.017 0.008-0.015 0.004-0.028 0.006-0.039 0.006-0.043 0-0.077-0.012-0.103-0.036-0.024-0.026-0.036-0.060-0.036-0.103s0.015-0.079 0.044-0.108c0.030-0.030 0.066-0.044 0.108-0.044zM6.895 18.422c0-0.194-0.011-0.354-0.033-0.48s-0.050-0.225-0.083-0.297-0.070-0.122-0.111-0.15c-0.041-0.030-0.080-0.044-0.119-0.044s-0.079 0.015-0.119 0.044c-0.041 0.028-0.078 0.078-0.111 0.15s-0.061 0.171-0.083 0.297c-0.022 0.126-0.033 0.286-0.033 0.48s0.011 0.354 0.033 0.48c0.022 0.126 0.050 0.225 0.083 0.297s0.070 0.123 0.111 0.153c0.041 0.028 0.080 0.042 0.119 0.042s0.079-0.014 0.119-0.042c0.041-0.030 0.078-0.080 0.111-0.153s0.061-0.171 0.083-0.297c0.022-0.126 0.033-0.286 0.033-0.48zM7.159 18.422c0 0.178-0.018 0.33-0.053 0.458s-0.081 0.233-0.139 0.316c-0.057 0.081-0.123 0.142-0.197 0.18-0.072 0.039-0.146 0.058-0.222 0.058s-0.151-0.019-0.225-0.058c-0.072-0.039-0.137-0.099-0.194-0.18-0.057-0.083-0.104-0.189-0.139-0.316s-0.053-0.28-0.053-0.458c0-0.178 0.018-0.33 0.053-0.458s0.081-0.232 0.139-0.314c0.057-0.083 0.122-0.144 0.194-0.183 0.074-0.039 0.149-0.058 0.225-0.058s0.15 0.019 0.222 0.058c0.074 0.039 0.14 0.1 0.197 0.183 0.057 0.081 0.104 0.186 0.139 0.314s0.053 0.28 0.053 0.458zM7.809 19.324l0.167 0.042v0.028h-0.569v-0.028l0.167-0.042v-1.762h-0.277v-0.042l0.513-0.111v1.915zM9.044 18.533v0.111h-0.888v-0.111h0.888zM10.196 18.422c0-0.194-0.011-0.354-0.033-0.48s-0.050-0.225-0.083-0.297-0.070-0.122-0.111-0.15c-0.041-0.030-0.080-0.044-0.119-0.044s-0.079 0.015-0.119 0.044c-0.041 0.028-0.078 0.078-0.111 0.15s-0.061 0.171-0.083 0.297c-0.022 0.126-0.033 0.286-0.033 0.48s0.011 0.354 0.033 0.48c0.022 0.126 0.050 0.225 0.083 0.297s0.070 0.123 0.111 0.153c0.041 0.028 0.080 0.042 0.119 0.042s0.079-0.014 0.119-0.042c0.041-0.030 0.078-0.080 0.111-0.153s0.061-0.171 0.083-0.297c0.022-0.126 0.033-0.286 0.033-0.48zM10.46 18.422c0 0.178-0.018 0.33-0.053 0.458s-0.081 0.233-0.139 0.316c-0.057 0.081-0.123 0.142-0.197 0.18-0.072 0.039-0.146 0.058-0.222 0.058s-0.151-0.019-0.225-0.058c-0.072-0.039-0.137-0.099-0.194-0.18-0.057-0.083-0.104-0.189-0.139-0.316s-0.053-0.28-0.053-0.458 0.018-0.33 0.053-0.458c0.035-0.128 0.081-0.232 0.139-0.314 0.057-0.083 0.122-0.144 0.194-0.183 0.074-0.039 0.149-0.058 0.225-0.058s0.15 0.019 0.222 0.058c0.074 0.039 0.14 0.1 0.197 0.183 0.057 0.081 0.104 0.186 0.139 0.314s0.053 0.28 0.053 0.458zM11.638 18.422c0-0.194-0.011-0.354-0.033-0.48s-0.050-0.225-0.083-0.297-0.070-0.122-0.111-0.15c-0.041-0.030-0.080-0.044-0.119-0.044s-0.079 0.015-0.119 0.044c-0.041 0.028-0.078 0.078-0.111 0.15s-0.061 0.171-0.083 0.297c-0.022 0.126-0.033 0.286-0.033 0.48s0.011 0.354 0.033 0.48c0.022 0.126 0.050 0.225 0.083 0.297s0.070 0.123 0.111 0.153c0.041 0.028 0.080 0.042 0.119 0.042s0.079-0.014 0.119-0.042c0.041-0.030 0.078-0.080 0.111-0.153s0.061-0.171 0.083-0.297c0.022-0.126 0.033-0.286 0.033-0.48zM11.901 18.422c0 0.178-0.018 0.33-0.053 0.458s-0.081 0.233-0.139 0.316c-0.057 0.081-0.123 0.142-0.197 0.18-0.072 0.039-0.146 0.058-0.222 0.058s-0.151-0.019-0.225-0.058c-0.072-0.039-0.137-0.099-0.194-0.18-0.057-0.083-0.104-0.189-0.139-0.316s-0.053-0.28-0.053-0.458 0.018-0.33 0.053-0.458c0.035-0.128 0.081-0.232 0.139-0.314 0.057-0.083 0.122-0.144 0.194-0.183 0.074-0.039 0.149-0.058 0.225-0.058s0.15 0.019 0.222 0.058c0.074 0.039 0.14 0.1 0.197 0.183 0.057 0.081 0.104 0.186 0.139 0.314s0.053 0.28 0.053 0.458zM12.538 19.38c0.056 0 0.109-0.013 0.161-0.039s0.097-0.065 0.136-0.117c0.041-0.052 0.073-0.117 0.097-0.194 0.024-0.080 0.036-0.171 0.036-0.275 0-0.094-0.014-0.178-0.042-0.25-0.026-0.074-0.063-0.137-0.111-0.189-0.046-0.052-0.103-0.091-0.169-0.117-0.067-0.028-0.14-0.042-0.219-0.042-0.031 0-0.061 0.003-0.089 0.008s-0.053 0.012-0.075 0.019c-0.026 0.007-0.050 0.017-0.072 0.028l0.153-0.766c0 0 0.009 0.002 0.028 0.006s0.043 0.007 0.072 0.011c0.031 0.004 0.066 0.007 0.103 0.011 0.039 0.002 0.078 0.003 0.117 0.003 0.059 0 0.116-0.003 0.169-0.008 0.056-0.006 0.104-0.012 0.147-0.019 0.050-0.007 0.097-0.017 0.142-0.028l-0.003 0.028c-0.070 0.078-0.167 0.137-0.291 0.178-0.124 0.039-0.28 0.058-0.469 0.058l-0.083 0.416c0.018-0.004 0.039-0.008 0.061-0.014 0.020-0.004 0.044-0.006 0.072-0.008 0.030-0.004 0.064-0.006 0.103-0.006 0.111 0 0.211 0.017 0.3 0.050s0.165 0.080 0.228 0.139c0.063 0.059 0.111 0.131 0.144 0.216 0.033 0.083 0.050 0.175 0.050 0.275s-0.017 0.192-0.050 0.277c-0.033 0.083-0.080 0.155-0.139 0.214-0.057 0.059-0.128 0.105-0.211 0.139-0.081 0.033-0.17 0.050-0.266 0.050-0.072 0-0.139-0.012-0.2-0.036s-0.114-0.057-0.158-0.1c-0.044-0.043-0.080-0.092-0.105-0.15-0.024-0.057-0.036-0.119-0.036-0.186 0-0.131 0.027-0.228 0.080-0.291 0.056-0.065 0.121-0.097 0.197-0.097 0.009 0 0.018 0.001 0.028 0.003 0.011 0.002 0.021 0.004 0.031 0.006s0.018 0.004 0.025 0.006l-0.056 0.222c-0.083 0-0.146 0.019-0.189 0.058-0.041 0.037-0.061 0.087-0.061 0.15 0 0.044 0.010 0.089 0.031 0.133 0.022 0.043 0.052 0.081 0.089 0.117 0.037 0.033 0.080 0.060 0.13 0.080 0.052 0.020 0.107 0.031 0.166 0.031zM13.953 17.479v-0.028h0.583v0.028l-0.166 0.042 0.402 1.429 0.402-1.54h0.042l0.455 1.54 0.364-1.401-0.18-0.069v-0.028h0.416v0.028l-0.18 0.069-0.486 1.887h-0.042l-0.458-1.554-0.402 1.554h-0.042l-0.541-1.915-0.166-0.042zM16.992 18.714c-0.161 0-0.28 0.036-0.358 0.108-0.076 0.070-0.114 0.168-0.114 0.294 0 0.083 0.020 0.148 0.061 0.194s0.085 0.069 0.133 0.069c0.044 0 0.083-0.013 0.117-0.039 0.035-0.026 0.065-0.055 0.089-0.086 0.028-0.035 0.052-0.077 0.072-0.125v-0.416zM16.784 18.117c-0.055 0-0.102 0.019-0.139 0.058-0.037 0.037-0.055 0.087-0.055 0.15 0 0.015 0 0.028 0 0.039 0.002 0.011 0.004 0.021 0.006 0.031s0.005 0.019 0.008 0.028l-0.222 0.055c-0.004-0.006-0.006-0.013-0.008-0.022s-0.004-0.019-0.006-0.031c0-0.011 0-0.026 0-0.044 0-0.039 0.009-0.076 0.028-0.111 0.019-0.037 0.045-0.069 0.080-0.097 0.037-0.030 0.080-0.053 0.13-0.069 0.052-0.018 0.111-0.028 0.178-0.028 0.133 0 0.238 0.038 0.314 0.114 0.078 0.076 0.117 0.177 0.117 0.302v0.833l0.166 0.042v0.028h-0.389v-0.166c-0.020 0.039-0.046 0.074-0.078 0.105-0.026 0.026-0.059 0.049-0.1 0.069-0.039 0.022-0.086 0.033-0.142 0.033-0.133 0-0.234-0.031-0.302-0.094-0.067-0.063-0.1-0.147-0.1-0.253 0-0.052 0.014-0.104 0.042-0.155 0.030-0.052 0.073-0.098 0.13-0.139 0.059-0.041 0.134-0.073 0.225-0.097 0.091-0.026 0.199-0.039 0.325-0.039v-0.166c0-0.139-0.021-0.236-0.064-0.291-0.041-0.055-0.089-0.083-0.144-0.083zM17.936 19.324l0.166 0.042v0.028h-0.555v-0.028l0.166-0.042v-1.138l-0.166-0.042v-0.028h0.389v0.333c0.024-0.068 0.053-0.13 0.086-0.186 0.030-0.048 0.066-0.092 0.108-0.13s0.093-0.058 0.153-0.058c0.020 0 0.040 0.002 0.058 0.006 0.019 0.002 0.035 0.005 0.050 0.008 0.017 0.006 0.031 0.010 0.044 0.014l-0.083 0.208c-0.011-0.006-0.023-0.012-0.036-0.019-0.011-0.006-0.025-0.010-0.042-0.014-0.015-0.006-0.031-0.008-0.047-0.008-0.048 0-0.091 0.013-0.128 0.039s-0.067 0.055-0.092 0.086c-0.030 0.037-0.054 0.079-0.072 0.125v0.805zM19.047 19.435c-0.059 0-0.11-0.007-0.153-0.022-0.043-0.013-0.077-0.029-0.103-0.047-0.031-0.020-0.057-0.043-0.078-0.069-0.007 0.028-0.023 0.054-0.047 0.078-0.022 0.024-0.044 0.040-0.064 0.047h-0.042c0.002-0.024 0.004-0.049 0.006-0.075 0.002-0.022 0.004-0.045 0.006-0.069 0.002-0.026 0.003-0.052 0.003-0.078 0-0.028-0.001-0.055-0.003-0.083s-0.004-0.053-0.006-0.075c-0.002-0.026-0.004-0.052-0.006-0.078h0.042c0.035 0.133 0.089 0.236 0.161 0.308s0.157 0.108 0.255 0.108c0.078 0 0.141-0.024 0.189-0.072 0.050-0.048 0.075-0.107 0.075-0.178 0-0.050-0.018-0.093-0.053-0.13-0.033-0.037-0.076-0.070-0.128-0.1-0.052-0.031-0.107-0.062-0.166-0.092s-0.115-0.063-0.166-0.1c-0.052-0.037-0.095-0.080-0.13-0.13-0.033-0.050-0.050-0.111-0.050-0.183 0-0.041 0.009-0.080 0.028-0.119s0.043-0.073 0.075-0.103c0.033-0.030 0.073-0.053 0.119-0.069 0.046-0.018 0.097-0.028 0.153-0.028 0.048 0 0.090 0.007 0.125 0.022 0.037 0.015 0.068 0.031 0.094 0.047 0.028 0.020 0.052 0.044 0.072 0.069 0.007-0.028 0.022-0.054 0.044-0.078 0.024-0.024 0.046-0.040 0.067-0.047h0.042c-0.004 0.024-0.006 0.049-0.008 0.075-0.002 0.022-0.004 0.046-0.006 0.072 0 0.026 0 0.051 0 0.075 0 0.028 0 0.056 0 0.086 0.002 0.028 0.004 0.053 0.006 0.075 0.002 0.026 0.005 0.051 0.008 0.075h-0.042c-0.035-0.133-0.087-0.236-0.155-0.308s-0.142-0.108-0.219-0.108c-0.063 0-0.116 0.021-0.158 0.064-0.043 0.041-0.064 0.089-0.064 0.144 0 0.046 0.018 0.086 0.053 0.119s0.079 0.065 0.13 0.094c0.052 0.028 0.108 0.056 0.169 0.086 0.063 0.030 0.12 0.064 0.172 0.103s0.095 0.085 0.13 0.139c0.035 0.054 0.053 0.118 0.053 0.194 0 0.044-0.011 0.089-0.033 0.133-0.020 0.043-0.050 0.081-0.089 0.117-0.037 0.033-0.082 0.060-0.136 0.080-0.052 0.020-0.109 0.031-0.172 0.031zM20.463 19.338c0-0.078 0.016-0.146 0.047-0.205 0.031-0.061 0.071-0.113 0.119-0.155h0.028c-0.004 0.024-0.006 0.048-0.008 0.072-0.002 0.020-0.004 0.044-0.006 0.069 0 0.024 0 0.046 0 0.067 0 0.031 0 0.060 0 0.086 0.002 0.024 0.004 0.045 0.006 0.064 0.002 0.020 0.005 0.040 0.008 0.058h-0.985l0.694-1.221h-0.444c0 0.078-0.016 0.147-0.047 0.208-0.031 0.059-0.071 0.11-0.119 0.153h-0.028c0.002-0.024 0.004-0.048 0.006-0.072 0.002-0.020 0.004-0.043 0.006-0.067 0.002-0.026 0.003-0.049 0.003-0.069 0-0.031-0.001-0.059-0.003-0.083-0.002-0.026-0.004-0.048-0.006-0.067-0.002-0.020-0.004-0.040-0.006-0.058h0.93l-0.694 1.221h0.5zM21.599 18.714c-0.161 0-0.28 0.036-0.358 0.108-0.076 0.070-0.114 0.168-0.114 0.294 0 0.083 0.020 0.148 0.061 0.194s0.085 0.069 0.133 0.069c0.044 0 0.083-0.013 0.117-0.039 0.035-0.026 0.065-0.055 0.089-0.086 0.028-0.035 0.052-0.077 0.072-0.125v-0.416zM21.391 18.117c-0.055 0-0.102 0.019-0.139 0.058-0.037 0.037-0.055 0.087-0.055 0.15 0 0.015 0 0.028 0 0.039 0.002 0.011 0.004 0.021 0.006 0.031s0.005 0.019 0.008 0.028l-0.222 0.055c-0.004-0.006-0.006-0.013-0.008-0.022s-0.004-0.019-0.006-0.031c0-0.011 0-0.026 0-0.044 0-0.039 0.009-0.076 0.028-0.111 0.019-0.037 0.045-0.069 0.080-0.097 0.037-0.030 0.080-0.053 0.13-0.069 0.052-0.018 0.111-0.028 0.178-0.028 0.133 0 0.238 0.038 0.314 0.114 0.078 0.076 0.117 0.177 0.117 0.302v0.833l0.166 0.042v0.028h-0.389v-0.166c-0.020 0.039-0.046 0.074-0.078 0.105-0.026 0.026-0.059 0.049-0.1 0.069-0.039 0.022-0.086 0.033-0.142 0.033-0.133 0-0.234-0.031-0.302-0.094-0.067-0.063-0.1-0.147-0.1-0.253 0-0.052 0.014-0.104 0.042-0.155 0.030-0.052 0.073-0.098 0.13-0.139 0.059-0.041 0.134-0.073 0.225-0.097 0.091-0.026 0.199-0.039 0.325-0.039v-0.166c0-0.139-0.021-0.236-0.064-0.291-0.041-0.055-0.089-0.083-0.144-0.083zM22.599 19.435h-0.042l-0.416-1.249-0.166-0.042v-0.028h0.555v0.028l-0.153 0.042 0.289 0.869 0.308-0.98h0.042l0.355 0.98 0.255-0.841-0.18-0.069v-0.028h0.416v0.028l-0.18 0.069-0.375 1.221h-0.042l-0.358-0.982-0.308 0.982zM24.654 18.714c-0.161 0-0.28 0.036-0.358 0.108-0.076 0.070-0.114 0.168-0.114 0.294 0 0.083 0.020 0.148 0.061 0.194s0.085 0.069 0.133 0.069c0.044 0 0.083-0.013 0.117-0.039 0.035-0.026 0.065-0.055 0.089-0.086 0.028-0.035 0.052-0.077 0.072-0.125v-0.416zM24.446 18.117c-0.055 0-0.102 0.019-0.139 0.058-0.037 0.037-0.055 0.087-0.055 0.15 0 0.015 0 0.028 0 0.039 0.002 0.011 0.004 0.021 0.006 0.031s0.005 0.019 0.008 0.028l-0.222 0.055c-0.004-0.006-0.006-0.013-0.008-0.022s-0.004-0.019-0.006-0.031c0-0.011 0-0.026 0-0.044 0-0.039 0.009-0.076 0.028-0.111 0.018-0.037 0.045-0.069 0.080-0.097 0.037-0.030 0.080-0.053 0.13-0.069 0.052-0.018 0.111-0.028 0.178-0.028 0.133 0 0.238 0.038 0.314 0.114 0.078 0.076 0.117 0.177 0.117 0.302v0.833l0.166 0.042v0.028h-0.389v-0.166c-0.020 0.039-0.046 0.074-0.078 0.105-0.026 0.026-0.059 0.049-0.1 0.069-0.039 0.022-0.086 0.033-0.142 0.033-0.133 0-0.234-0.031-0.302-0.094-0.067-0.063-0.1-0.147-0.1-0.253 0-0.052 0.014-0.104 0.042-0.155 0.030-0.052 0.073-0.098 0.13-0.139 0.059-0.041 0.134-0.073 0.225-0.097 0.091-0.026 0.199-0.039 0.325-0.039v-0.166c0-0.139-0.021-0.236-0.064-0.291-0.041-0.055-0.089-0.083-0.144-0.083z"></path>
<path fill="#fff" style="fill: var(--color2, #fff)" d="M29.925 18.7c0 0.575-0.51 1.041-1.139 1.041s-1.139-0.466-1.139-1.041c0-0.575 0.51-1.041 1.139-1.041s1.139 0.466 1.139 1.041z"></path>
<path fill="#cc8e1e" style="fill: var(--color1, #cc8e1e)" d="M29.16 18.288c0.054-0.018 0.107 0.030 0.087 0.080l-0.344 0.873c-0.021 0.054-0.105 0.055-0.128 0.002l-0.161-0.376-0.412-0.147c-0.059-0.021-0.058-0.097 0.002-0.117l0.955-0.314z"></path>
</symbol>


<symbol id="icon-Vector" viewBox="0 0 31 32">
<path fill="#cc8e1e" style="fill: var(--color1, #cc8e1e)" d="M18.123 3.121c-0.019 0.389 0.121 0.824 0.389 1.217 0.182 0.267 0.299 0.075 0.3-0.056 0.006-0.292 0.173-0.365 0.414-0.419 0.618-0.14 0.945-0.615 0.884-1.225-0.043-0.443 0.036-0.305 0.41-0.26 0.558 0.068 1.079-0.007 1.529-0.404 0.141-0.126 0.131-0.213-0.026-0.304-0.627-0.364-1.276-0.66-1.998-0.736-0.552-0.058-1.017 0.125-1.392 0.56-0.374 0.435-0.505 0.957-0.509 1.627l0 0zM16.382 3.738c-0.257-0.003-0.515-0.001-0.772-0.001v-0.002c-0.249 0-0.499-0.003-0.748 0.002-0.091 0.002-0.224-0.027-0.237 0.109-0.017 0.169 0.139 0.147 0.228 0.15 0.514 0.014 1.029 0.017 1.544 0.016 0.087 0 0.219 0.019 0.209-0.139-0.010-0.138-0.127-0.134-0.224-0.135zM14.789 3.468l1.65-0.001c0.138 0.003 0.244-0.048 0.341-0.154 0.783-0.845 0.574-2.418-0.411-3.064-0.653-0.429-1.401-0.295-1.884 0.34-0.558 0.731-0.584 1.922-0.065 2.683 0.095 0.138 0.207 0.201 0.368 0.197zM15.166 16.625c0.007 0.41 0.197 0.567 0.583 0.481 0.192-0.043 0.292-0.139 0.286-0.364-0.011-0.484-0.003-0.969-0.003-1.453h0.048c0-1.066 0.081-1.108-0.612-1.067-0.293 0.017-0.349 0.072-0.344 0.39 0.011 0.671 0.030 1.342 0.043 2.013zM15.24 21.029c0.010 0.433 0.062 0.467 0.477 0.446 0.195-0.010 0.274-0.094 0.267-0.3-0.009-0.297-0.003-0.594-0.003-0.892h0.015c0-0.271-0.007-0.543 0.001-0.815 0.010-0.319-0.066-0.415-0.366-0.428-0.269-0.012-0.4 0.113-0.401 0.409-0.004 0.527-0.005 1.054 0.009 1.58zM15.315 23.957c-0.004 0.384 0.572 0.425 0.595 0.048 0.015-0.263 0.013-0.527 0.014-0.791 0-0.094-0.047-0.155-0.139-0.182-0.486-0.145-0.472 0.201-0.472 0.542h0.004l-0.001 0.384zM15.61 26.554c0.297-0.011 0.405-0.814 0.007-0.823-0.189-0.005-0.256 0.193-0.254 0.419-0.002 0.195 0.118 0.409 0.247 0.404zM15.375 28.631c0.010 0.319 0.461 0.346 0.461-0.023-0.001-0.068 0-0.137 0-0.203h0.003c0-0.226 0.043-0.524-0.217-0.545-0.313-0.026-0.255 0.489-0.247 0.772zM15.461 30.227c-0.001 0.45-0.002 0.9 0.001 1.351 0.002 0.322 0.313 0.305 0.321 0.007 0.007-0.23 0.002-0.459 0.002-0.688h0.006c0-0.221 0.001-0.442 0-0.663-0.001-0.127-0.023-0.257-0.173-0.252-0.132 0.005-0.155 0.128-0.156 0.245zM15.247 29.902c0.052-0.076 0.119-0.155-0.007-0.227-0.3-0.17-0.491 0.462-0.231 0.933 0.034 0.061 0.064 0.165 0.154 0.122 0.194-0.095-0.233-0.358 0.085-0.828zM15.98 29.457c-0.214-0.187-0.47-0.298-0.712-0.434-0.361-0.204-0.463-0.642-0.236-1.002 0.109-0.171 0.267-0.26 0.195-0.376-0.136-0.219-0.414-0.236-0.567-0.034-0.327 0.434-0.223 1.113 0.245 1.497 0.21 0.172 0.445 0.309 0.669 0.46 0.343 0.231 0.668 0.47 0.466 0.94-0.015 0.104-0.029 0.175 0.041 0.198 0.186 0.060 0.493-0.732-0.099-1.249zM15.212 25.78c0.236-0.341-0.077-0.368-0.276-0.522-0.216-0.167-0.36 0.114-0.437 0.309-0.251 0.637-0.054 1.229 0.56 1.638 0.266 0.177 0.561 0.306 0.821 0.489 0.481 0.338 0.532 0.805 0.159 1.263-0.149 0.181 0.097 0.23 0.108 0.229 0.077-0.016 0.149-0.069 0.217-0.129 0.556-0.491 0.46-1.43-0.194-1.841-0.194-0.122-0.408-0.208-0.608-0.32-0.463-0.262-0.621-0.726-0.351-1.115zM16.593 25.308c-0.606-0.786-1.136-0.671-1.669-1.143-0.32-0.283-0.377-0.479-0.254-0.898 0.127-0.436-0.037-0.306-0.37-0.457-0.117-0.053-0.178-0.007-0.223 0.11-0.257 0.658 0.024 1.516 0.615 1.87 0.317 0.189 0.64 0.367 0.951 0.566 0.539 0.345 0.612 0.64 0.32 1.225-0.037 0.074-0.101 0.165-0.005 0.224 0.124 0.076 0.264 0.124 0.374 0.173 0.291 0.052 0.743-1.046 0.261-1.671h-0zM15.722 21.743c-0.121-0.007-0.242-0.001-0.364-0.009-1.471-0.097-1.681-1.738-0.86-2.459 0.212-0.185 0.483-0.253 0.462-0.374-0.015-0.091-0.111-0.090-0.179-0.105-0.404-0.090-0.795-0.224-1.18-0.384-0.121-0.051-0.226-0.075-0.31 0.032-0.16 0.202-0.349 0.386-0.43 0.643-0.269 0.865-0.316 1.697 0.308 2.446 0.522 0.626 1.102 1.119 1.934 1.183 0.702 0.054 1.542-0.119 1.472 0.897-0.046 0.664-0.572 0.635-0.526 0.853 0.032 0.151 0.49 0.357 0.61 0.27 0.243-0.176 0.436-0.39 0.551-0.69 0.452-1.175-0.533-2.251-1.49-2.302zM13.709 14.016c-0.533-0.042-1.070-0.084-1.575-0.271-0.279-0.104-0.436-0.010-0.597 0.207-0.651 0.879-0.562 2.165 0.186 3.002 0.643 0.717 1.456 1.088 2.33 1.346 0.6 0.177 1.205 0.334 1.806 0.506 0.347 0.099 0.662 0.268 0.944 0.509 0.694 0.592 0.615 1.723-0.151 2.147-0.427 0.236 0.226 0.416 0.522 0.812 0.022 0.030 0.063 0.047 0.101 0.073 0.068-0.045 0.134-0.079 0.19-0.126 0.286-0.241 0.517-0.534 0.754-0.826 0.676-0.832 0.507-2.719-0.709-3.336-1.151-0.584-2.212-0.646-3.243-1.040-0.521-0.199-0.938-0.52-1.17-1.077-0.091-0.218-0.098-0.419-0.024-0.64 0.355-1.058 0.974-1.006 0.96-1.181-0.009-0.104-0.207-0.096-0.324-0.106zM12.911 9.046c-0.317 0.192-0.644 0.305-1.006 0.34-0.257 0.025-0.511 0.083-0.765 0.135-0.453 0.092-0.777 0.363-0.979 0.798-0.237 0.512-0.164 1.012 0.062 1.5 0.421 0.914 1.123 1.469 2.053 1.674 1.189 0.261 2.399 0.364 3.609 0.462 1.091 0.088 2.166 0.148 2.34 1.553 0.118 0.95-0.913 1.448-1.584 1.636-0.073 0.021-0.187 0.022-0.193 0.123-0.009 0.13 0.12 0.123 0.195 0.142 1.309 0.34 1.081 0.731 1.488 0.54 1.059-0.496 2.012-1.38 2.022-2.79-0.011-0.561-0.241-1.056-0.68-1.448-0.625-0.559-1.367-0.836-2.159-0.974-0.961-0.166-1.929-0.217-2.902-0.2-0.461 0.008-0.921-0.022-1.376-0.109-0.511-0.097-0.95-0.338-1.294-0.748-0.491-0.584-0.435-1.27 0.16-1.316 1.129-0.088 1.62 0.434 2.359-0.132 0.207-0.158 0.251-0.405 0.153-0.64-0.194-0.457-1.089-0.798-1.502-0.548zM13.477 9.549c-0.374 0-0.374-0.245 0-0.245s0.374 0.245 0 0.245zM13.193 8.289c-0.488 0.169-0.658-0.407-0.984-0.018-0.187 0.222-0.376 0.443-0.562 0.665l-0.069 0.152c0.060 0.143 0.736-0.006 0.953-0.171 0.39-0.298 0.603-0.050 0.797-0.411 0.119-0.221-0.045-0.249-0.136-0.217zM13.057 7.949c0.517 0.005 1.255-0.915 0.94-1.073-0.236-0.118-0.247 0.458-1.001 1.022 0.038 0.032 0.050 0.051 0.061 0.051zM14.315 7.27c-0.361 0.755-0.718 0.763-0.669 0.904l0.173 0.026c0.551-0.33 0.698-0.798 0.739-0.845 0.066-0.147-0.154-0.274-0.243-0.086zM12.155 7.647c0.035 0.118 0.178 0.12 0.221 0.104 0.531-0.196 0.935-0.555 1.213-1.068 0.083-0.152-0.159-0.376-0.298-0.202l-1.044 0.978c-0.062 0.040-0.118 0.099-0.091 0.189zM10.817 7.897c-0.67 0.62-1.46 1.032-2.243 1.456-0.181 0.098-0.183 0.208-0.010 0.338 0.215 0.163 0.467 0.175 0.698 0.176 0.262 0.028 0.49-0.023 0.706-0.13 0.776-0.387 1.374-1.007 1.946-1.661 0.105-0.12 0.011-0.41-0.196-0.334-0.44 0.162-0.753 0.019-0.9 0.154zM8.887 7.225c-0.718 0.484-1.477 0.878-2.304 1.11-0.206 0.057-0.227 0.175-0.169 0.36 0.169 0.532 0.786 0.646 1.321 0.518 0.849-0.202 1.592-0.643 2.3-1.157 0.132-0.096 0.296-0.171 0.359-0.331 0.051-0.128-0.125-0.214-0.124-0.342 0.002-0.405-0.325-0.233-0.49-0.325-0.342-0.192-0.615-0.021-0.893 0.166l-0-0zM7.985 6.181c-1.022 0.482-2.093 0.798-3.183 1.054-0.255 0.060-0.279 0.151-0.094 0.349 0.338 0.362 0.975 0.501 1.396 0.416 1.098-0.217 2.083-0.71 2.995-1.376 0.037-0.027 0.099-0.050 0.082-0.111-0.044-0.16-0.346 0.067-0.945-0.315-0.083-0.053-0.161-0.060-0.251-0.018zM6.542 5.348c-0.747 0.2-1.513 0.259-2.277 0.338-0.549 0.056-1.098 0.029-1.647 0.073-0.186 0.015-0.238 0.081-0.14 0.274 0.317 0.625 0.813 0.896 1.488 0.866 1.136-0.004 2.629-0.535 3.666-1.022 0.271-0.127 0.228-0.363-0.054-0.393-0.504-0.054-0.541-0.268-1.036-0.136zM6.359 4.958c-0.216-0.204-0.294-0.545-0.637-0.63-0.894-0.223-0.739-0.813-1.138-0.776-1.207 0.113-2.414 0.229-3.625 0.296-0.242 0.014-0.484 0.030-0.725 0.058-0.254 0.029-0.281 0.088-0.18 0.327 0.076 0.181 0.185 0.338 0.311 0.484 0.52 0.604 1.207 0.751 1.836 0.784 1.74-0.068 2.405-0.081 4.025-0.407 0.062-0.013 0.224-0.049 0.132-0.136l0-0zM6.292 3.988c1.208-0.051 2.26-0.593 3.3-1.169 0.327-0.18-0.26-0.198-0.774-0.66-0.12-0.108-0.232-0.118-0.377-0.060-1.046 0.412-2.1 0.796-3.167 1.142-0.090 0.029-0.219 0.035-0.24 0.144-0.031 0.159 0.179 0.28 0.18 0.28 0.322 0.237 0.682 0.347 1.078 0.323zM8.301 4.97c0.788-0.275 1.504-0.697 2.199-1.17 0.271-0.185 0.466-0.333 0.351-0.736-0.16-0.563-0.363-0.29-0.781-0.054-1.129 0.636-2.281 1.207-3.569 1.391-0.124 0.017-0.226 0.048-0.066 0.22 0.516 0.558 1.186 0.587 1.866 0.349zM11.976 4.414c-0.786 0.797-1.429 1.343-2.403 1.882-0.069 0.038-0.165 0.065-0.166 0.166-0.001 0.116 0.091 0.173 0.178 0.221 0.285 0.157 0.812 0.045 1.088-0.063 0.609-0.238 1.013-0.732 1.439-1.215 0.274-0.312 0.281-0.593 0.107-0.939-0.073-0.147-0.124-0.174-0.243-0.053zM11.621 4.18c-0.129-0.126-0.271-0.24-0.42-0.338-0.099-0.065-0.183 0.032-0.261 0.085-1.059 0.71-1.551 1.046-2.726 1.474-0.188 0.068-0.188 0.183-0.081 0.327 0.371 0.506 1.068 0.369 1.53 0.101 0.698-0.405 1.304-0.941 1.886-1.506 0.040-0.038 0.116-0.1 0.071-0.143zM11.919 3.817c0.292 0.070 0.54 0.102 0.502 0.521-0.013 0.144 0.109 0.224 0.219 0.068 0.267-0.377 0.521-0.764 0.521-1.354-0.065-0.458-0.195-0.989-0.508-1.434-0.971-1.376-2.329-0.387-3.5 0.103-0.105 0.044-0.118 0.124-0.025 0.189 0.337 0.236 0.67 0.479 1.102 0.485 0.244 0.003 0.486-0.015 0.724-0.064 0.186-0.038 0.203 0.034 0.176 0.202-0.106 0.644 0.184 1.138 0.789 1.283zM12.787 6.505c0.311-0.373 0.309-0.375 0.028-0.745-0.151-0.198-0.208-0.411-0.436-0.137-0.49 0.592-0.995 1.169-1.737 1.424-0.213 0.073-0.17 0.356 0.006 0.399 0.111 0.058 0.233 0.066 0.357 0.065 0.747-0.033 1.307-0.437 1.783-1.006zM14.773 6.766c0.005-0.146-0.063-0.205-0.179-0.262-0.733-0.363-1.514-1.023-1.981-1.765-0.046 0.141 0.015 0.209 0.052 0.279 0.451 0.842 1.111 1.445 1.922 1.879 0.142 0.077 0.183 0.023 0.186-0.131zM16.204 8.079c0.051-1.157-0.007-2.317 0.051-3.475 0.011-0.209-0.065-0.317-0.28-0.308-0.267 0.011-0.535 0.008-0.801 0-0.169-0.005-0.236 0.077-0.23 0.245 0.010 0.306 0.024 0.613 0.028 0.919 0.010 0.946-0.010 1.892 0.048 2.837v0.153c-0.002 1.184 0.015 2.368 0.044 3.552 0.007 0.244 0.090 0.316 0.308 0.289 0.435-0.055 0.746 0.068 0.758-0.226 0.010-0.23 0.027-0.459 0.034-0.689 0.035-1.098-0.009-2.197 0.040-3.297zM16.605 6.902c0.831-0.42 1.555-0.964 1.955-1.881 0.042-0.094 0.109-0.187 0.071-0.31-0.093 0.030-0.105 0.114-0.141 0.176-0.423 0.735-0.978 1.302-1.776 1.568-0.197 0.067-0.382 0.152-0.277 0.427 0.033 0.089 0.109 0.050 0.167 0.021zM17.587 8.069c-0.276-0.231-0.479-0.522-0.648-0.845-0.098-0.185-0.425-0.016-0.26 0.192 0.173 0.218 0.584 0.737 0.863 0.785 0.085 0.015 0.104-0.083 0.046-0.132zM18.166 7.821c-0.272-0.287-0.57-0.548-0.747-0.921-0.075-0.158-0.289-0.013-0.219 0.152 0.093 0.219 0.215 0.418 0.387 0.576 0.173 0.158 0.351 0.317 0.627 0.299-0.022-0.049-0.029-0.085-0.049-0.106zM17.709 6.702c0.236 0.442 0.703 0.936 1.17 1.035 0.189 0.040 0.276-0.165 0.095-0.265-0.413-0.228-0.709-0.58-0.967-0.976-0.055-0.085-0.111-0.145-0.216-0.070-0.1 0.072-0.149 0.154-0.082 0.277zM19.405 9.144c0.078-0.008 0.182 0.032 0.222-0.055 0.044-0.096-0.064-0.142-0.115-0.201-0.166-0.196-0.374-0.355-0.506-0.583-0.109-0.187-0.246-0.203-0.411-0.103-0.375 0.228-0.646-0.052-0.693 0.163-0.055 0.254 0.293 0.336 0.421 0.367 0.637 0.153 0.437 0.476 1.082 0.412zM20.25 9.577c-0.393-0.113-0.793-0.17-1.198-0.151-0.483 0.023-0.242-0.339-0.941-0.423-0.491-0.059-0.878 0.17-1.24 0.475-0.245 0.206-0.252 0.874 0.398 0.991 1.217 0.219 1.327-0.381 1.97-0.225 0.571 0.14 0.763 0.583 0.477 1.127-0.179 0.342-0.462 0.561-0.772 0.753-0.323 0.201-0.684 0.294-1.098 0.38 0.311 0.248 0.851 0.269 1.288 0.615 0.343 0.272 0.593 0.105 0.892-0.104 0.614-0.432 1.125-0.935 1.234-1.767 0.109-0.824-0.257-1.456-1.008-1.672zM17.717 9.304c0.374 0 0.374 0.245 0 0.245s-0.374-0.245 0-0.245zM20.953 8.31c-0.339-0.268-0.672-0.565-1.147-0.501l-0.213-0.042c-0.115-0.024-0.235-0.096-0.314 0.072-0.071 0.15-0.016 0.257 0.079 0.364 0.373 0.415 0.757 0.819 1.218 1.123 0.506 0.334 1.393 0.828 1.988 0.44 0.1-0.065 0.186-0.151 0.189-0.279 0.006-0.146-0.126-0.162-0.217-0.203-0.565-0.257-1.091-0.585-1.584-0.976zM20.272 7.509c0.558-0.033 0.53-0.411 0.266-0.498-0.692-0.228-1.195-0.717-1.635-1.302-0.346-0.461-0.301-0.151-0.629 0.217-0.096 0.108-0.082 0.207-0.004 0.319 0.207 0.298 0.46 0.549 0.739 0.768 0.364 0.286 0.772 0.457 1.263 0.497zM24.668 8.337c-0.75-0.129-1.816-0.777-2.456-1.194-0.222-0.144-0.413-0.176-0.677-0.128-0.32 0.059-0.544 0.127-0.629 0.507-0.038 0.169-0.058 0.26 0.086 0.356 0.954 0.635 1.888 1.454 3.057 1.36l0.563-0.191c0.231-0.143 0.443-0.644 0.056-0.711zM22.378 6.437c-0.087 0.018-0.218-0.042-0.243 0.101-0.024 0.133 0.099 0.184 0.183 0.243 0.41 0.29 0.853 0.519 1.303 0.73 0.569 0.267 1.157 0.477 1.8 0.545 0.403-0.031 0.802-0.118 1.101-0.468 0.199-0.233 0.173-0.317-0.114-0.373-1.052-0.207-2.065-0.545-3.048-0.987-0.371-0.167-0.379 0.079-0.981 0.208l-0 0zM21.724 6.3c-0.913-0.4-1.634-1.079-2.341-1.779-0.29-0.286-0.31-0.284-0.431 0.113-0.061 0.2-0.161 0.391 0.006 0.596 0.354 0.433 0.722 0.849 1.167 1.179 0.321 0.239 0.682 0.341 1.113 0.338 0.639 0.005 0.753-0.329 0.486-0.447zM22.969 5.407c-0.946-0.286-1.764-0.837-2.569-1.406-0.235-0.167-0.398-0.172-0.621 0.006-0.181 0.145-0.183 0.238-0.028 0.395 0.56 0.572 1.182 1.058 1.859 1.463 0.4 0.239 1.151 0.361 1.468-0.122 0.107-0.163 0.094-0.274-0.109-0.336zM23.074 5.013c0.608 0.246 1.185 0.005 1.669-0.33 0.071-0.049 0.178-0.109 0.154-0.21-0.025-0.106-0.165-0.099-0.294-0.121-1.283-0.218-2.577-0.662-3.644-1.51-0.154-0.123-0.381-0.22-0.5-0.053-0.114 0.16-0.125 0.417-0.138 0.635-0.009 0.152 0.153 0.211 0.259 0.278 0.797 0.509 1.623 0.957 2.493 1.311zM27.026 5.708c-0.818-0.051-1.618-0.218-2.415-0.405-0.42-0.099-0.327 0.072-0.942 0.157-0.138 0.020-0.258 0.049-0.281 0.221-0.027 0.199 0.136 0.209 0.247 0.251 0.793 0.299 2.779 0.962 3.61 0.981 0.654 0.003 1.2-0.222 1.561-0.833 0.157-0.267 0.118-0.338-0.18-0.345-0.534-0.011-1.067 0.005-1.6-0.028zM26.747 3.534c-0.524-0.045-0.412 0.476-0.963 0.675-0.419 0.151-0.522 0.299-0.759 0.62-0.053 0.070-0.18 0.108-0.151 0.21 0.030 0.111 0.159 0.096 0.249 0.113 1.34 0.241 2.787 0.352 4.149 0.308 0.833-0.028 1.48-0.38 1.867-1.188 0.143-0.299 0.108-0.356-0.218-0.382l-4.175-0.355zM21.726 2.864c0.664 0.358 1.346 0.669 2.052 0.921 0.37 0.132 0.748 0.217 1.159 0.238 0.406-0.052 0.844-0.074 1.161-0.443 0.151-0.176 0.136-0.258-0.074-0.326-1.098-0.356-2.188-0.737-3.259-1.176-0.305-0.125-0.3 0.179-1.035 0.516-0.064 0.029-0.161 0.035-0.16 0.13 0 0.091 0.093 0.107 0.156 0.141z"></path>
</symbol>

</defs>
</svg>
